{
  "accessors": [
    {
      "bufferView": 2,
      "componentType": 5126,
      "count": 2992,
      "max": [
        108.46833038330078,
        32.47697448730469,
        130.0
      ],
      "min": [
        -108.46833038330078,
        -32.47697448730469,
        -130.0
      ],
      "type": "VEC3"
    },
    {
      "bufferView": 2,
      "byteOffset": 35904,
      "componentType": 5126,
      "count": 2992,
      "max": [
        0.9999159574508667,
        0.9999839663505554,
        0.9999834299087524
      ],
      "min": [
        -0.9999159574508667,
        -0.9999822974205017,
        -0.9999834299087524
      ],
      "type": "VEC3"
    },
    {
      "bufferView": 3,
      "componentType": 5126,
      "count": 2992,
      "max": [
        1.0,
        1.0,
        1.0,
        1.0
      ],
      "min": [
        -1.0,
        -1.0,
        -0.9693335890769958,
        1.0
      ],
      "type": "VEC4"
    },
    {
      "bufferView": 1,
      "componentType": 5126,
      "count": 2992,
      "max": [
        0.984375,
        0.9900054931640625
      ],
      "min": [
        0.0099945068359375,
        0.01025390625
      ],
      "type": "VEC2"
    },
    {
      "bufferView": 1,
      "byteOffset": 23936,
      "componentType": 5126,
      "count": 2992,
      "max": [
        0.9931640625,
        0.99609375
      ],
      "min": [
        0.00390625,
        0.00927734375
      ],
      "type": "VEC2"
    },
    {
      "bufferView": 1,
      "byteOffset": 47872,
      "componentType": 5126,
      "count": 2992,
      "max": [
        0.984375,
        0.9900054931640625
      ],
      "min": [
        0.0099945068359375,
        0.01025390625
      ],
      "type": "VEC2"
    },
    {
      "bufferView": 1,
      "byteOffset": 71808,
      "componentType": 5126,
      "count": 2992,
      "max": [
        0.984375,
        0.9900054931640625
      ],
      "min": [
        0.0099945068359375,
        0.01025390625
      ],
      "type": "VEC2"
    },
    {
      "bufferView": 1,
      "byteOffset": 95744,
      "componentType": 5126,
      "count": 2992,
      "max": [
        0.984375,
        0.9900054931640625
      ],
      "min": [
        0.0099945068359375,
        0.01025390625
      ],
      "type": "VEC2"
    },
    {
      "bufferView": 0,
      "componentType": 5125,
      "count": 10296,
      "type": "SCALAR"
    }
  ],
  "asset": {
    "extras": {
      "author": "MaX3Dd (https://sketchfab.com/MaX3Dd)",
      "license": "CC-BY-4.0 (http://creativecommons.org/licenses/by/4.0/)",
      "source": "https://sketchfab.com/3d-models/old-wooden-storage-shelf-eb3dfe43ab884c4fb878db2d97eeea7f",
      "title": "Old Wooden Storage Shelf"
    },
    "generator": "Sketchfab-16.61.0",
    "version": "2.0"
  },
  "bufferViews": [
    {
      "buffer": 0,
      "byteLength": 41184,
      "name": "floatBufferViews",
      "target": 34963
    },
    {
      "buffer": 0,
      "byteLength": 119680,
      "byteOffset": 41184,
      "byteStride": 8,
      "name": "floatBufferViews",
      "target": 34962
    },
    {
      "buffer": 0,
      "byteLength": 71808,
      "byteOffset": 160864,
      "byteStride": 12,
      "name": "floatBufferViews",
      "target": 34962
    },
    {
      "buffer": 0,
      "byteLength": 47872,
      "byteOffset": 232672,
      "byteStride": 16,
      "name": "floatBufferViews",
      "target": 34962
    }
  ],
  "buffers": [
    {
      "byteLength": 280544,
      "uri": "scene.bin"
    }
  ],
  "images": [
    {
      "uri": "textures/wooden_storage_shelf_baseColor.png"
    },
    {
      "uri": "textures/wooden_storage_shelf_metallicRoughness.png"
    },
    {
      "uri": "textures/wooden_storage_shelf_normal.png"
    }
  ],
  "materials": [
    {
      "doubleSided": true,
      "name": "wooden_storage_shelf",
      "normalTexture": {
        "index": 2
      },
      "occlusionTexture": {
        "index": 1
      },
      "pbrMetallicRoughness": {
        "baseColorTexture": {
          "index": 0
        },
        "metallicRoughnessTexture": {
          "index": 1
        }
      }
    }
  ],
  "meshes": [
    {
      "name": "wooden_storage_shelf_wooden_storage_shelf_0",
      "primitives": [
        {
          "attributes": {
            "NORMAL": 1,
            "POSITION": 0,
            "TANGENT": 2,
            "TEXCOORD_0": 3,
            "TEXCOORD_1": 4,
            "TEXCOORD_2": 5,
            "TEXCOORD_3": 6,
            "TEXCOORD_4": 7
          },
          "indices": 8,
          "material": 0,
          "mode": 4
        }
      ]
    }
  ],
  "nodes": [
    {
      "children": [
        1
      ],
      "matrix": [
        1.0,
        0.0,
        0.0,
        0.0,
        0.0,
        2.220446049250313e-16,
        -1.0,
        0.0,
        0.0,
        1.0,
        2.220446049250313e-16,
        0.0,
        0.0,
        0.0,
        0.0,
        1.0
      ],
      "name": "Sketchfab_model"
    },
    {
      "children": [
        2
      ],
      "matrix": [
        0.009999999776482582,
        0.0,
        0.0,
        0.0,
        0.0,
        0.0,
        0.009999999776482582,
        0.0,
        0.0,
        -0.009999999776482582,
        0.0,
        0.0,
        0.0,
        0.0,
        0.0,
        1.0
      ],
      "name": "wooden_storage_shelf.fbx"
    },
    {
      "children": [
        3
      ],
      "name": "RootNode"
    },
    {
      "children": [
        4
      ],
      "matrix": [
        1.0,
        0.0,
        0.0,
        0.0,
        0.0,
        2.220446049250313e-16,
        -1.0,
        0.0,
        0.0,
        1.0,
        2.220446049250313e-16,
        0.0,
        0.0,
        130.0,
        0.0,
        1.0
      ],
      "name": "wooden_storage_shelf"
    },
    {
      "mesh": 0,
      "name": "wooden_storage_shelf_wooden_storage_shelf_0"
    }
  ],
  "samplers": [
    {
      "magFilter": 9729,
      "minFilter": 9987,
      "wrapS": 10497,
      "wrapT": 10497
    }
  ],
  "scene": 0,
  "scenes": [
    {
      "name": "Sketchfab_Scene",
      "nodes": [
        0
      ]
    }
  ],
  "textures": [
    {
      "sampler": 0,
      "source": 0
    },
    {
      "sampler": 0,
      "source": 1
    },
    {
      "sampler": 0,
      "source": 2
    }
  ]
}
