{
  "accessors": [
    {
      "bufferView": 2,
      "componentType": 5126,
      "count": 121,
      "max": [
        6.813405513763428,
        0.0,
        8.461523056030273
      ],
      "min": [
        -6.813405513763428,
        0.0,
        -8.46152400970459
      ],
      "type": "VEC3"
    },
    {
      "bufferView": 2,
      "byteOffset": 1452,
      "componentType": 5126,
      "count": 121,
      "max": [
        0.0,
        1.0,
        -0.0
      ],
      "min": [
        0.0,
        1.0,
        -0.0
      ],
      "type": "VEC3"
    },
    {
      "bufferView": 1,
      "componentType": 5126,
      "count": 121,
      "max": [
        1.0,
        1.0
      ],
      "min": [
        0.0,
        0.0
      ],
      "type": "VEC2"
    },
    {
      "bufferView": 0,
      "componentType": 5125,
      "count": 600,
      "type": "SCALAR"
    },
    {
      "bufferView": 2,
      "byteOffset": 2904,
      "componentType": 5126,
      "count": 10106,
      "max": [
        -3.3804121017456055,
        10.725996971130371,
        9.942829132080078
      ],
      "min": [
        -7.879283428192139,
        -10.725996971130371,
        -7.627375602722168
      ],
      "type": "VEC3"
    },
    {
      "bufferView": 2,
      "byteOffset": 124176,
      "componentType": 5126,
      "count": 10106,
      "max": [
        1.0,
        1.0,
        1.0
      ],
      "min": [
        -1.0,
        -1.0,
        -1.0
      ],
      "type": "VEC3"
    },
    {
      "bufferView": 1,
      "byteOffset": 968,
      "componentType": 5126,
      "count": 10106,
      "max": [
        1.0,
        1.0
      ],
      "min": [
        0.0,
        0.0
      ],
      "type": "VEC2"
    },
    {
      "bufferView": 0,
      "byteOffset": 2400,
      "componentType": 5125,
      "count": 43278,
      "type": "SCALAR"
    },
    {
      "bufferView": 2,
      "byteOffset": 245448,
      "componentType": 5126,
      "count": 16440,
      "max": [
        -7.426748275756836,
        6.81015682220459,
        -6.125497817993164
      ],
      "min": [
        -8.10776424407959,
        -6.81015682220459,
        -7.215088844299316
      ],
      "type": "VEC3"
    },
    {
      "bufferView": 2,
      "byteOffset": 442728,
      "componentType": 5126,
      "count": 16440,
      "max": [
        1.0,
        1.0,
        1.0
      ],
      "min": [
        -1.0,
        -1.0,
        -1.0
      ],
      "type": "VEC3"
    },
    {
      "bufferView": 1,
      "byteOffset": 81816,
      "componentType": 5126,
      "count": 16440,
      "max": [
        1.0,
        1.0
      ],
      "min": [
        0.0,
        0.0
      ],
      "type": "VEC2"
    },
    {
      "bufferView": 0,
      "byteOffset": 175512,
      "componentType": 5125,
      "count": 86616,
      "type": "SCALAR"
    },
    {
      "bufferView": 2,
      "byteOffset": 640008,
      "componentType": 5126,
      "count": 2882,
      "max": [
        -7.763919353485107,
        3.9287045001983643,
        -6.427957057952881
      ],
      "min": [
        -8.192277908325195,
        3.436779737472534,
        -6.919936656951904
      ],
      "type": "VEC3"
    },
    {
      "bufferView": 2,
      "byteOffset": 674592,
      "componentType": 5126,
      "count": 2882,
      "max": [
        1.0,
        0.999863862991333,
        1.0
      ],
      "min": [
        -1.0,
        -0.999863862991333,
        -1.0
      ],
      "type": "VEC3"
    },
    {
      "bufferView": 1,
      "byteOffset": 213336,
      "componentType": 5126,
      "count": 2882,
      "max": [
        1.0,
        1.0
      ],
      "min": [
        0.0,
        0.0
      ],
      "type": "VEC2"
    },
    {
      "bufferView": 0,
      "byteOffset": 521976,
      "componentType": 5125,
      "count": 14580,
      "type": "SCALAR"
    },
    {
      "bufferView": 2,
      "byteOffset": 709176,
      "componentType": 5126,
      "count": 1100,
      "max": [
        4.430150026663547e-15,
        8.47353744506836,
        8.277132987976074
      ],
      "min": [
        -4.039458274841309,
        -8.47353744506836,
        -8.143109321594238
      ],
      "type": "VEC3"
    },
    {
      "bufferView": 2,
      "byteOffset": 722376,
      "componentType": 5126,
      "count": 1100,
      "max": [
        1.0,
        0.9329924583435059,
        0.9476659893989563
      ],
      "min": [
        -1.0,
        -0.9329924583435059,
        -1.0
      ],
      "type": "VEC3"
    },
    {
      "bufferView": 1,
      "byteOffset": 236392,
      "componentType": 5126,
      "count": 1100,
      "max": [
        1.0,
        1.0
      ],
      "min": [
        0.0,
        0.0
      ],
      "type": "VEC2"
    },
    {
      "bufferView": 0,
      "byteOffset": 580296,
      "componentType": 5125,
      "count": 3630,
      "type": "SCALAR"
    },
    {
      "bufferView": 2,
      "byteOffset": 735576,
      "componentType": 5126,
      "count": 2522,
      "max": [
        -7.947453022003174,
        -1.2079447507858276,
        -6.583487510681152
      ],
      "min": [
        -8.138137817382813,
        -1.3887680768966675,
        -6.764420032501221
      ],
      "type": "VEC3"
    },
    {
      "bufferView": 2,
      "byteOffset": 765840,
      "componentType": 5126,
      "count": 2522,
      "max": [
        1.0,
        0.9993926882743835,
        1.0
      ],
      "min": [
        -1.0,
        -0.9993926882743835,
        -1.0
      ],
      "type": "VEC3"
    },
    {
      "bufferView": 1,
      "byteOffset": 245192,
      "componentType": 5126,
      "count": 2522,
      "max": [
        1.0,
        1.0
      ],
      "min": [
        0.0,
        0.0
      ],
      "type": "VEC2"
    },
    {
      "bufferView": 0,
      "byteOffset": 594816,
      "componentType": 5125,
      "count": 13500,
      "type": "SCALAR"
    },
    {
      "bufferView": 2,
      "byteOffset": 796104,
      "componentType": 5126,
      "count": 3836,
      "max": [
        6.81015682220459,
        7.038774013519287,
        6.9475178718566895
      ],
      "min": [
        -0.021465342491865158,
        -7.036662578582764,
        -7.71284294128418
      ],
      "type": "VEC3"
    },
    {
      "bufferView": 2,
      "byteOffset": 842136,
      "componentType": 5126,
      "count": 3836,
      "max": [
        1.0,
        1.0,
        1.0
      ],
      "min": [
        -1.0,
        -1.0,
        -1.0
      ],
      "type": "VEC3"
    },
    {
      "bufferView": 1,
      "byteOffset": 265368,
      "componentType": 5126,
      "count": 3836,
      "max": [
        1.0,
        1.0
      ],
      "min": [
        0.0,
        0.0
      ],
      "type": "VEC2"
    },
    {
      "bufferView": 0,
      "byteOffset": 648816,
      "componentType": 5125,
      "count": 17028,
      "type": "SCALAR"
    },
    {
      "bufferView": 2,
      "byteOffset": 888168,
      "componentType": 5126,
      "count": 588,
      "max": [
        -6.469648838043213,
        10.215235710144043,
        8.172187805175781
      ],
      "min": [
        -7.512692451477051,
        -10.215235710144043,
        -5.1076178550720215
      ],
      "type": "VEC3"
    },
    {
      "bufferView": 2,
      "byteOffset": 895224,
      "componentType": 5126,
      "count": 588,
      "max": [
        1.0,
        1.0,
        1.0
      ],
      "min": [
        -1.0,
        -1.0,
        -1.0
      ],
      "type": "VEC3"
    },
    {
      "bufferView": 1,
      "byteOffset": 296056,
      "componentType": 5126,
      "count": 588,
      "max": [
        1.0,
        1.0
      ],
      "min": [
        0.0,
        0.0
      ],
      "type": "VEC2"
    },
    {
      "bufferView": 0,
      "byteOffset": 716928,
      "componentType": 5125,
      "count": 1728,
      "type": "SCALAR"
    },
    {
      "bufferView": 2,
      "byteOffset": 902280,
      "componentType": 5126,
      "count": 115,
      "max": [
        -3.881789445877075,
        10.010931015014648,
        -7.491172790527344
      ],
      "min": [
        -7.491172790527344,
        -10.147133827209473,
        -7.899782180786133
      ],
      "type": "VEC3"
    },
    {
      "bufferView": 2,
      "byteOffset": 903660,
      "componentType": 5126,
      "count": 115,
      "max": [
        1.0,
        1.0,
        1.0
      ],
      "min": [
        -1.0,
        -1.0,
        -1.0
      ],
      "type": "VEC3"
    },
    {
      "bufferView": 1,
      "byteOffset": 300760,
      "componentType": 5126,
      "count": 115,
      "max": [
        1.0,
        1.0
      ],
      "min": [
        0.0,
        0.0
      ],
      "type": "VEC2"
    },
    {
      "bufferView": 0,
      "byteOffset": 723840,
      "componentType": 5125,
      "count": 312,
      "type": "SCALAR"
    },
    {
      "bufferView": 2,
      "byteOffset": 905040,
      "componentType": 5126,
      "count": 2522,
      "max": [
        -7.947453022003174,
        -0.9552879333496094,
        -6.583487510681152
      ],
      "min": [
        -8.138137817382813,
        -1.1361112594604492,
        -6.764420032501221
      ],
      "type": "VEC3"
    },
    {
      "bufferView": 2,
      "byteOffset": 935304,
      "componentType": 5126,
      "count": 2522,
      "max": [
        1.0,
        0.9993926882743835,
        1.0
      ],
      "min": [
        -1.0,
        -0.9993926882743835,
        -1.0
      ],
      "type": "VEC3"
    },
    {
      "bufferView": 1,
      "byteOffset": 301680,
      "componentType": 5126,
      "count": 2522,
      "max": [
        1.0,
        1.0
      ],
      "min": [
        0.0,
        0.0
      ],
      "type": "VEC2"
    },
    {
      "bufferView": 0,
      "byteOffset": 725088,
      "componentType": 5125,
      "count": 13500,
      "type": "SCALAR"
    },
    {
      "bufferView": 2,
      "byteOffset": 965568,
      "componentType": 5126,
      "count": 2522,
      "max": [
        -7.947453022003174,
        -0.7026311159133911,
        -6.583487510681152
      ],
      "min": [
        -8.138137817382813,
        -0.8834543824195862,
        -6.764420032501221
      ],
      "type": "VEC3"
    },
    {
      "bufferView": 2,
      "byteOffset": 995832,
      "componentType": 5126,
      "count": 2522,
      "max": [
        1.0,
        0.9993926882743835,
        1.0
      ],
      "min": [
        -1.0,
        -0.9993926882743835,
        -1.0
      ],
      "type": "VEC3"
    },
    {
      "bufferView": 1,
      "byteOffset": 321856,
      "componentType": 5126,
      "count": 2522,
      "max": [
        1.0,
        1.0
      ],
      "min": [
        0.0,
        0.0
      ],
      "type": "VEC2"
    },
    {
      "bufferView": 0,
      "byteOffset": 779088,
      "componentType": 5125,
      "count": 13500,
      "type": "SCALAR"
    },
    {
      "bufferView": 2,
      "byteOffset": 1026096,
      "componentType": 5126,
      "count": 2522,
      "max": [
        -7.947453022003174,
        -0.44997498393058777,
        -6.583487510681152
      ],
      "min": [
        -8.138137817382813,
        -0.6307969093322754,
        -6.764420032501221
      ],
      "type": "VEC3"
    },
    {
      "bufferView": 2,
      "byteOffset": 1056360,
      "componentType": 5126,
      "count": 2522,
      "max": [
        1.0,
        0.9993926882743835,
        1.0
      ],
      "min": [
        -1.0,
        -0.9993926882743835,
        -1.0
      ],
      "type": "VEC3"
    },
    {
      "bufferView": 1,
      "byteOffset": 342032,
      "componentType": 5126,
      "count": 2522,
      "max": [
        1.0,
        1.0
      ],
      "min": [
        0.0,
        0.0
      ],
      "type": "VEC2"
    },
    {
      "bufferView": 0,
      "byteOffset": 833088,
      "componentType": 5125,
      "count": 13500,
      "type": "SCALAR"
    }
  ],
  "asset": {
    "extras": {
      "author": "A.stark (https://sketchfab.com/a.stark)",
      "license": "CC-BY-4.0 (http://creativecommons.org/licenses/by/4.0/)",
      "source": "https://sketchfab.com/3d-models/grandmas-tv-dda8301215014f6fb1329679ee4cd2c9",
      "title": "Grandma's TV"
    },
    "generator": "Sketchfab-12.65.0",
    "version": "2.0"
  },
  "bufferViews": [
    {
      "buffer": 0,
      "byteLength": 887088,
      "name": "floatBufferViews",
      "target": 34963
    },
    {
      "buffer": 0,
      "byteLength": 362208,
      "byteOffset": 887088,
      "byteStride": 8,
      "name": "floatBufferViews",
      "target": 34962
    },
    {
      "buffer": 0,
      "byteLength": 1086624,
      "byteOffset": 1249296,
      "byteStride": 12,
      "name": "floatBufferViews",
      "target": 34962
    }
  ],
  "buffers": [
    {
      "byteLength": 2335920,
      "uri": "scene.bin"
    }
  ],
  "extensionsUsed": [
    "KHR_materials_transmission"
  ],
  "images": [
    {
      "uri": "textures/goonies_baseColor.jpeg"
    }
  ],
  "materials": [
    {
      "doubleSided": true,
      "name": "goonies",
      "pbrMetallicRoughness": {
        "baseColorTexture": {
          "index": 0
        },
        "metallicFactor": 0.0,
        "roughnessFactor": 0.9524317153998911
      }
    },
    {
      "doubleSided": true,
      "name": "plastic",
      "pbrMetallicRoughness": {
        "baseColorFactor": [
          0.0,
          0.0,
          0.0,
          1.0
        ],
        "metallicFactor": 0.050351434008840575
      }
    },
    {
      "doubleSided": true,
      "name": "buttons",
      "pbrMetallicRoughness": {
        "baseColorFactor": [
          0.0,
          0.0,
          0.0,
          1.0
        ],
        "metallicFactor": 0.0,
        "roughnessFactor": 0.0
      }
    },
    {
      "alphaMode": "BLEND",
      "doubleSided": true,
      "emissiveFactor": [
        0.01,
        0.01,
        0.01
      ],
      "extensions": {
        "KHR_materials_transmission": {
          "transmissionFactor": 0.9435683928278278
        }
      },
      "name": "screen",
      "pbrMetallicRoughness": {
        "baseColorFactor": [
          0.8,
          0.8,
          0.8,
          0.25
        ],
        "metallicFactor": 0.4151618238087421,
        "roughnessFactor": 0.0
      }
    }
  ],
  "meshes": [
    {
      "name": "Plane_goonies_0",
      "primitives": [
        {
          "attributes": {
            "NORMAL": 1,
            "POSITION": 0,
            "TEXCOORD_0": 2
          },
          "indices": 3,
          "material": 0,
          "mode": 4
        }
      ]
    },
    {
      "name": "Corps_01_plastic_0",
      "primitives": [
        {
          "attributes": {
            "NORMAL": 5,
            "POSITION": 4,
            "TEXCOORD_0": 6
          },
          "indices": 7,
          "material": 1,
          "mode": 4
        }
      ]
    },
    {
      "name": "Corps_09_buttons_0",
      "primitives": [
        {
          "attributes": {
            "NORMAL": 9,
            "POSITION": 8,
            "TEXCOORD_0": 10
          },
          "indices": 11,
          "material": 2,
          "mode": 4
        }
      ]
    },
    {
      "name": "Corps_10_buttons_0",
      "primitives": [
        {
          "attributes": {
            "NORMAL": 13,
            "POSITION": 12,
            "TEXCOORD_0": 14
          },
          "indices": 15,
          "material": 2,
          "mode": 4
        }
      ]
    },
    {
      "name": "Corps_01__1__plastic_0",
      "primitives": [
        {
          "attributes": {
            "NORMAL": 17,
            "POSITION": 16,
            "TEXCOORD_0": 18
          },
          "indices": 19,
          "material": 1,
          "mode": 4
        }
      ]
    },
    {
      "name": "Corps_11_buttons_0",
      "primitives": [
        {
          "attributes": {
            "NORMAL": 21,
            "POSITION": 20,
            "TEXCOORD_0": 22
          },
          "indices": 23,
          "material": 2,
          "mode": 4
        }
      ]
    },
    {
      "name": "Corps_01__2__plastic_0",
      "primitives": [
        {
          "attributes": {
            "NORMAL": 25,
            "POSITION": 24,
            "TEXCOORD_0": 26
          },
          "indices": 27,
          "material": 1,
          "mode": 4
        }
      ]
    },
    {
      "name": "Corps_02__1__screen_0",
      "primitives": [
        {
          "attributes": {
            "NORMAL": 29,
            "POSITION": 28,
            "TEXCOORD_0": 30
          },
          "indices": 31,
          "material": 3,
          "mode": 4
        }
      ]
    },
    {
      "name": "Corps_08_plastic_0",
      "primitives": [
        {
          "attributes": {
            "NORMAL": 33,
            "POSITION": 32,
            "TEXCOORD_0": 34
          },
          "indices": 35,
          "material": 1,
          "mode": 4
        }
      ]
    },
    {
      "name": "Corps_12_buttons_0",
      "primitives": [
        {
          "attributes": {
            "NORMAL": 37,
            "POSITION": 36,
            "TEXCOORD_0": 38
          },
          "indices": 39,
          "material": 2,
          "mode": 4
        }
      ]
    },
    {
      "name": "Corps_13_buttons_0",
      "primitives": [
        {
          "attributes": {
            "NORMAL": 41,
            "POSITION": 40,
            "TEXCOORD_0": 42
          },
          "indices": 43,
          "material": 2,
          "mode": 4
        }
      ]
    },
    {
      "name": "Corps_14_buttons_0",
      "primitives": [
        {
          "attributes": {
            "NORMAL": 45,
            "POSITION": 44,
            "TEXCOORD_0": 46
          },
          "indices": 47,
          "material": 2,
          "mode": 4
        }
      ]
    }
  ],
  "nodes": [
    {
      "children": [
        1
      ],
      "matrix": [
        0.018856307491660118,
        2.2200512524875538e-16,
        -0.999822199344635,
        0.0,
        -0.999822199344635,
        4.186941347330579e-18,
        -0.018856307491660118,
        0.0,
        0.0,
        1.0,
        2.220446049250313e-16,
        0.0,
        -0.6780475974082947,
        1.534149779836133e-16,
        -0.6909196376800537,
        1.0
      ],
      "name": "Sketchfab_model"
    },
    {
      "children": [
        2
      ],
      "matrix": [
        1.0,
        0.0,
        0.0,
        0.0,
        0.0,
        0.0,
        1.0,
        0.0,
        0.0,
        -1.0,
        0.0,
        0.0,
        0.0,
        0.0,
        0.0,
        1.0
      ],
      "name": "4dc81b3139994e5686169b3b7e960bd5.fbx"
    },
    {
      "children": [
        3,
        5,
        7
      ],
      "name": "RootNode"
    },
    {
      "children": [
        4
      ],
      "matrix": [
        0.794202670045892,
        -0.2638806278734226,
        -0.5473656302007868,
        0.0,
        0.21727597098697632,
        0.9645553453447492,
        -0.1497469138197457,
        0.0,
        0.567479754109028,
        -4.163336342344337e-17,
        0.823387350325688,
        0.0,
        -29.098388671875,
        8.012195587158203,
        14.262361526489258,
        1.0
      ],
      "name": "CINEMA_4D_Editor"
    },
    {
      "name": "Object_4"
    },
    {
      "children": [
        6
      ],
      "matrix": [
        -0.00020155593728721222,
        0.9999999796876018,
        0.0,
        0.0,
        -0.9999999796876018,
        -0.00020155593728721222,
        0.0,
        0.0,
        0.0,
        0.0,
        1.0,
        0.0,
        -6.498626232147217,
        1.2056622505187988,
        0.0,
        1.0
      ],
      "name": "Plane"
    },
    {
      "mesh": 0,
      "name": "Plane_goonies_0"
    },
    {
      "children": [
        8,
        10,
        12,
        14,
        16,
        18,
        20,
        22,
        24,
        26,
        28
      ],
      "matrix": [
        1.0,
        0.0,
        0.0,
        0.0,
        0.0,
        2.220446049250313e-16,
        -1.0,
        0.0,
        0.0,
        1.0,
        2.220446049250313e-16,
        0.0,
        0.0,
        0.0,
        0.0,
        1.0
      ],
      "name": "te_obj"
    },
    {
      "children": [
        9
      ],
      "name": "Corps_01"
    },
    {
      "mesh": 1,
      "name": "Corps_01_plastic_0"
    },
    {
      "children": [
        11
      ],
      "name": "Corps_09"
    },
    {
      "mesh": 2,
      "name": "Corps_09_buttons_0"
    },
    {
      "children": [
        13
      ],
      "name": "Corps_10"
    },
    {
      "mesh": 3,
      "name": "Corps_10_buttons_0"
    },
    {
      "children": [
        15
      ],
      "name": "Corps_01__1_"
    },
    {
      "mesh": 4,
      "name": "Corps_01__1__plastic_0"
    },
    {
      "children": [
        17
      ],
      "name": "Corps_11"
    },
    {
      "mesh": 5,
      "name": "Corps_11_buttons_0"
    },
    {
      "children": [
        19
      ],
      "name": "Corps_01__2_"
    },
    {
      "mesh": 6,
      "name": "Corps_01__2__plastic_0"
    },
    {
      "children": [
        21
      ],
      "matrix": [
        1.0,
        0.0,
        0.0,
        0.0,
        0.0,
        1.0,
        0.0,
        0.0,
        0.0,
        0.0,
        1.0,
        0.0,
        -0.006018503103405237,
        0.0,
        0.0,
        1.0
      ],
      "name": "Corps_02__1_"
    },
    {
      "mesh": 7,
      "name": "Corps_02__1__screen_0"
    },
    {
      "children": [
        23
      ],
      "name": "Corps_08"
    },
    {
      "mesh": 8,
      "name": "Corps_08_plastic_0"
    },
    {
      "children": [
        25
      ],
      "name": "Corps_12"
    },
    {
      "mesh": 9,
      "name": "Corps_12_buttons_0"
    },
    {
      "children": [
        27
      ],
      "name": "Corps_13"
    },
    {
      "mesh": 10,
      "name": "Corps_13_buttons_0"
    },
    {
      "children": [
        29
      ],
      "name": "Corps_14"
    },
    {
      "mesh": 11,
      "name": "Corps_14_buttons_0"
    }
  ],
  "samplers": [
    {
      "magFilter": 9729,
      "minFilter": 9987,
      "wrapS": 10497,
      "wrapT": 10497
    }
  ],
  "scene": 0,
  "scenes": [
    {
      "name": "Sketchfab_Scene",
      "nodes": [
        0
      ]
    }
  ],
  "textures": [
    {
      "sampler": 0,
      "source": 0
    }
  ]
}
